<svg width="165" height="30" viewBox="0 0 165 30" fill="none" xmlns="http://www.w3.org/2000/svg">
<path d="M12.2287 9.04512L11.8784 12.5166C10.4726 11.7177 8.89988 11.2839 7.29576 11.2524C5.58898 11.2524 4.74052 11.8081 4.74052 12.9143C4.74999 13.5476 5.08183 14.1288 5.61364 14.4436C6.37751 14.901 7.1721 15.3014 7.9913 15.6415C9.36225 16.1967 10.6304 16.9916 11.7403 17.9916C12.5777 18.8799 13.0315 20.0807 12.9982 21.3203C13.0414 22.9464 12.3025 24.4889 11.025 25.4393C9.69316 26.4792 7.84989 26.9992 5.49525 26.9992C3.62429 27.0185 1.76449 26.6993 0 26.0561L0.241712 22.4418C1.85736 23.2741 3.63579 23.7135 5.44099 23.7265C7.32865 23.7265 8.27248 23.1351 8.27248 21.9525C8.23772 21.2653 7.88768 20.6365 7.3303 20.26C6.47682 19.6887 5.58686 19.1777 4.66653 18.7307C3.46549 18.176 2.35542 17.4313 1.37628 16.5234C0.600017 15.7093 0.171827 14.6077 0.18745 13.4648C0.1787 11.9118 0.904271 10.4521 2.13101 9.55489C3.43001 8.53535 5.17462 8.01709 7.36483 8.0001C8.43691 7.9933 10.0582 8.34164 12.2287 9.04512Z" fill="white"/>
<path d="M23.3495 3V8.79942H27.8158V12.1721H23.3495V19.9723C23.3495 21.293 23.5575 22.2423 23.9736 22.82C24.388 23.4044 25.0941 23.6966 26.0968 23.6966C26.7189 23.6832 27.3351 23.5763 27.9233 23.3797L28 26.6137C26.9308 26.8718 25.8328 27.0015 24.7308 27C22.5309 27 20.9637 26.4734 20.0291 25.4201C19.0946 24.3669 18.629 22.6467 18.6324 20.2596V12.1721H15V8.79942H18.8524V4.47586L23.3495 3Z" fill="white"/>
<path fill-rule="evenodd" clip-rule="evenodd" d="M46.096 23.5083C45.9789 23.2923 45.9252 22.5337 45.9252 21.2276C45.9252 17.4966 45.8943 15.3699 45.8324 14.8474C45.6339 12.6369 45.0464 11.0092 44.07 9.96429C42.8658 8.65476 40.9488 8 38.3191 8C36.2021 8.01184 34.1076 8.4487 32.1532 9.28608L32.2215 12.6018C33.7537 11.6967 35.4792 11.1946 37.2451 11.1398C40.1319 11.1432 41.5754 12.4377 41.5754 15.0232V15.2744C38.0994 15.2744 35.6291 15.4854 34.1938 15.9174C31.4014 16.7715 30.0051 18.565 30.0051 21.2979C29.9373 22.8667 30.5445 24.3865 31.665 25.4525C32.8363 26.5078 34.3568 27.0599 35.9123 26.9948C38.3826 26.9982 40.3679 25.8695 41.8683 23.6088L41.9122 24.4729C41.9578 25.8494 42.6852 26.5377 44.0944 26.5377H48V24.1866C46.939 24.1866 46.3043 23.9605 46.096 23.5083ZM41.5949 17.9119V18.8764C41.6349 20.1118 41.2278 21.3184 40.4525 22.2625C39.6923 23.2253 38.5378 23.7663 37.3329 23.7244C36.5901 23.7461 35.8643 23.493 35.2874 23.011C34.7297 22.5241 34.4231 21.7985 34.4575 21.0467C34.4575 18.9568 36.3045 17.9119 39.9985 17.9119H41.5949Z" fill="white"/>
<path d="M62.6318 8C66.874 8 68.9967 10.5154 69 15.5463V26H64.4129V16.5171C64.4129 13.3561 63.2355 11.7756 60.8806 11.7756C59.5456 11.7202 58.2913 12.402 57.6318 13.5415C56.9572 14.6812 56.6276 15.9857 56.6816 17.3024V26H52.0896V12.1902C52.1503 11.707 51.9167 11.2337 51.4925 10.9805C51.0224 10.7824 50.5103 10.6987 50 10.7366V8.45366H54.0597C55.5423 8.45366 56.2836 9.12195 56.2836 10.4585V11.6341C57.6302 9.21463 59.7463 8.00325 62.6318 8Z" fill="white"/>
<path d="M85.229 9.04513L84.8789 12.5167C83.4721 11.717 81.8982 11.2831 80.293 11.2524C78.5934 11.2524 77.742 11.8064 77.7387 12.9143C77.7482 13.5489 78.0822 14.1308 78.6164 14.4436C79.38 14.9011 80.1743 15.3014 80.9932 15.6416C82.3636 16.1967 83.6313 16.9917 84.7408 17.9916C85.5779 18.8799 86.0315 20.0807 85.9982 21.3204C86.0414 22.9464 85.3028 24.489 84.0258 25.4393C82.7108 26.4793 80.8666 26.9992 78.4932 26.9992C76.623 27.0177 74.764 26.6986 73 26.0562L73.2466 22.4419C74.8601 23.2734 76.6361 23.7128 78.4389 23.7265C80.3292 23.7265 81.2743 23.1352 81.2743 21.9525C81.24 21.2639 80.8878 20.6342 80.3275 20.2601C79.4756 19.6895 78.5877 19.1786 77.6697 18.7308C76.4684 18.1774 75.3586 17.4326 74.3807 16.5235C73.6028 15.7106 73.1745 14.6081 73.1923 13.4648C73.1836 11.9118 73.9089 10.4521 75.1351 9.5549C76.4271 8.53536 78.171 8.01709 80.367 8.0001C81.4386 7.9933 83.0593 8.34164 85.229 9.04513Z" fill="white"/>
<path d="M125.872 8.949L125.53 12.5743C124.362 12.0572 123.112 11.7429 121.835 11.6453C120.236 11.5729 118.68 12.1609 117.542 13.2672C116.448 14.3897 115.866 15.9014 115.929 17.4548C115.867 19.029 116.448 20.5622 117.542 21.7127C118.645 22.8305 120.181 23.4331 121.763 23.3697C123.191 23.3018 124.581 22.8971 125.816 22.1897L126 25.8953C123.798 26.6318 122.083 27 120.855 27C117.836 27 115.44 26.1213 113.667 24.3639C111.894 22.6065 111.006 20.2633 111.003 17.3343C110.939 14.8368 111.93 12.4248 113.739 10.6712C115.563 8.89376 117.923 8.00335 120.819 8C121.602 8.01339 123.286 8.32972 125.872 8.949Z" fill="white"/>
<path fill-rule="evenodd" clip-rule="evenodd" d="M131.74 4.54677C133.931 4.54677 135 3.78236 135 2.2585C135 0.769378 133.937 0 131.74 0C129.544 0 128.475 0.734632 128.475 2.2585C128.475 3.78236 129.549 4.54677 131.74 4.54677ZM129.271 11.9477V26H134.166V10.1856C134.166 8.82551 133.37 8.14548 131.778 8.14548H127V10.4586H127.492C128.678 10.4586 129.271 10.9549 129.271 11.9477Z" fill="white"/>
<path fill-rule="evenodd" clip-rule="evenodd" d="M154.093 23.51C153.976 23.2941 153.917 22.5356 153.917 21.2297C153.921 17.4996 153.901 15.3716 153.859 14.8459C153.657 12.6359 153.067 11.0086 152.089 9.96387C150.89 8.65462 148.97 8 146.33 8C144.21 8.01184 142.113 8.4486 140.156 9.28581L140.224 12.6008C141.759 11.6969 143.487 11.1949 145.255 11.1392C148.146 11.1425 149.591 12.4367 149.591 15.0217V15.2728C146.1 15.2695 143.638 15.4838 142.204 15.9158C139.405 16.7696 138.005 18.5627 138.005 21.295C137.939 22.8641 138.549 24.3835 139.672 25.4488C140.839 26.5008 142.354 27.0543 143.905 26.9958C146.379 26.9991 148.367 25.8707 149.87 23.6105L149.904 24.4744C149.953 25.8506 150.681 26.5387 152.089 26.5387H156V24.1881C154.939 24.1881 154.299 23.9621 154.093 23.51ZM149.581 17.9148V18.8791C149.621 20.1142 149.214 21.3206 148.437 22.2644C147.677 23.2256 146.523 23.7663 145.318 23.726C144.574 23.7487 143.847 23.4955 143.27 23.0128C142.71 22.527 142.403 21.8008 142.439 21.0489C142.436 18.9595 144.285 17.9148 147.987 17.9148H149.581Z" fill="white"/>
<path d="M165 26H160.201V3.75774C160.201 3.11019 159.991 2.6883 159.572 2.50189C159.069 2.33162 158.534 2.26145 158 2.29585V0H162.637C164.198 0 164.979 0.672076 164.979 2.01623L165 26Z" fill="white"/>
<path fill-rule="evenodd" clip-rule="evenodd" d="M103.148 18.2676C102.486 20.2663 98.5882 23.849 98.019 24.0588L97.9267 22.1001C95.2598 21.7503 92.9108 20.2513 92.6493 17.3682C92.3562 15.2403 93.4417 13.157 95.3777 12.1316C100.137 9.69314 104.789 14.54 103.168 18.2676H103.148ZM97.9882 26.5672V30C99.0652 29.8551 99.8191 28.7858 100.901 27.7215C101.814 26.8271 102.609 26.0725 103.517 25.1781C105.153 23.5692 106.922 22.1101 107.697 19.0671C109.235 12.931 104.671 7.94927 99.6294 7.1398C90.2183 5.64077 84.2434 16.5387 90.7004 23.4742C91.5797 24.3608 92.6239 25.0764 93.7776 25.5829C95.3521 26.3324 96.2137 26.1625 97.9882 26.5672Z" fill="#C90404"/>
</svg>
